<?xml version="1.0" encoding="utf-8"?>
<!-- Generator: Adobe Illustrator 27.4.0, SVG Export Plug-In . SVG Version: 6.00 Build 0)  -->
<svg version="1.1" id="Capa_1" xmlns="http://www.w3.org/2000/svg" xmlns:xlink="http://www.w3.org/1999/xlink" x="0px" y="0px"
	 viewBox="0 0 100 100" style="enable-background:new 0 0 100 100;" xml:space="preserve">
<style type="text/css">
	.st0{fill:#268CD7;}
	.st1{fill:#767676;}
</style>
<g id="Grupo_1_00000091011244673536950180000004867040474766513586_" transform="translate(-6.549 -17.572)">
	<path id="Trazado_1_00000106138796384237492640000018442064020705362827_" class="st1" d="M93.97,100.55H18.83l0.6-0.06
		c-0.13-0.04-0.26-0.06-0.4-0.07c-0.82-0.05-1.61-0.27-2.33-0.65c-1.04-0.5-1.95-1.25-2.64-2.18c-0.69-0.89-1.15-1.94-1.33-3.05
		c-0.11-0.72-0.16-1.45-0.16-2.18c-0.01-4.44-0.01-8.89,0-13.33c-0.01-0.39,0.05-0.77,0.18-1.13c0.26-0.67,0.9-1.11,1.61-1.13
		c0.61-0.03,1.23-0.1,1.83-0.2c2.46-0.47,4.61-1.95,5.93-4.08c1.52-2.31,1.88-5.19,0.97-7.79c-0.52-1.6-1.49-3.02-2.79-4.09
		c-1.17-1.03-2.59-1.72-4.11-2.01c-0.61-0.12-1.24-0.14-1.85-0.2c-0.88-0.03-1.61-0.7-1.72-1.58c-0.04-0.24-0.06-0.48-0.06-0.73
		c0-4.54,0-9.07,0-13.61c0-0.63,0.05-1.26,0.16-1.88c0.25-1.39,0.9-2.67,1.88-3.69c0.77-0.81,1.72-1.44,2.77-1.83
		c0.98-0.34,2.02-0.51,3.06-0.48c23.64,0,47.28,0,70.92,0c0.86,0,1.73,0.03,2.59,0.09c1.32,0.11,2.58,0.6,3.62,1.41
		c0.96,0.71,1.73,1.65,2.23,2.73c0.37,0.71,0.58,1.5,0.61,2.3c0,0.13,0.02,0.26,0.03,0.39h0.03l0.07-0.26v15.37
		c-0.02,0.06-0.05,0.12-0.06,0.18c-0.11,0.91-0.89,1.59-1.8,1.58c-0.59,0.06-1.19,0.08-1.77,0.2c-2.34,0.45-4.4,1.8-5.73,3.77
		c-2.74,3.92-1.98,9.29,1.74,12.3c1.21,1.02,2.68,1.69,4.25,1.94c0.54,0.09,1.08,0.1,1.62,0.16c0.85,0.03,1.55,0.68,1.66,1.52
		c0.01,0.04,0.06,0.07,0.09,0.1v15.08c-0.04,0.33-0.07,0.66-0.14,0.99c-0.2,1.08-0.63,2.11-1.27,3.01c-0.76,1.07-1.79,1.9-2.99,2.43
		c-0.71,0.36-1.5,0.55-2.29,0.54c-0.06,0-0.13,0-0.19,0.01c0,0.01,0,0.02,0,0.03L93.97,100.55 M56.41,38.26H21.9h-1.87
		c-1.69-0.08-3.22,1.03-3.66,2.67c-0.1,0.42-0.15,0.84-0.14,1.27c-0.01,4.16-0.01,8.33-0.01,12.49c0,0.13,0.03,0.2,0.17,0.22
		c0.18,0.02,0.35,0.06,0.53,0.1c2.59,0.53,4.95,1.84,6.75,3.76c2.8,2.89,4.05,6.94,3.35,10.91c-0.35,2.24-1.31,4.34-2.78,6.07
		c-1.54,1.87-3.6,3.26-5.91,4c-0.62,0.2-1.26,0.31-1.89,0.46c-0.17,0.04-0.25,0.1-0.23,0.28c0.02,0.21,0.02,0.43,0.02,0.64
		c0,3.89,0,7.79,0,11.68c0,0.27,0.01,0.54,0.02,0.81c0.15,1.59,1.34,2.88,2.9,3.18c0.63,0.07,1.26,0.1,1.88,0.08
		c17.09,0,34.18,0,51.27,0c6.83,0,13.66,0,20.49,0c0.43,0.02,0.86-0.02,1.28-0.1c1.7-0.4,2.88-1.96,2.8-3.71
		c-0.01-4.21-0.01-8.43,0-12.64c0-0.13-0.04-0.18-0.16-0.2c-0.18-0.03-0.35-0.05-0.53-0.09c-3.02-0.59-5.71-2.27-7.58-4.71
		c-2.33-2.9-3.23-6.69-2.45-10.33c0.7-3.77,3.08-7,6.48-8.78c1.24-0.69,2.59-1.16,3.99-1.38c0.12-0.02,0.26,0,0.26-0.22
		c-0.01-1.94-0.02-3.88-0.01-5.82c0-2.25,0-4.51,0.01-6.76c0.03-0.74-0.15-1.47-0.53-2.11c-0.71-1.16-2-1.84-3.36-1.77
		C80.8,38.27,68.61,38.27,56.41,38.26"/>
	<path id="Trazado_2_00000127024408332791673590000018405598507724853404_" class="st1" d="M51.2,85.86c-1,0.06-1.86-0.7-1.92-1.7
		c-0.02-0.26,0.02-0.52,0.12-0.77c0.1-0.24,0.23-0.47,0.38-0.69c1.74-2.61,3.48-5.22,5.22-7.83c2.25-3.37,4.5-6.74,6.75-10.12
		l8.59-12.88c0.35-0.52,0.68-1.04,1.04-1.55c0.25-0.42,0.63-0.75,1.09-0.93c0.67-0.25,1.41-0.05,1.88,0.49
		c0.49,0.46,0.63,1.18,0.37,1.8c-0.09,0.23-0.2,0.44-0.33,0.65c-1.76,2.67-3.53,5.33-5.3,7.99c-2.01,3.02-4.02,6.03-6.03,9.05
		c-1.37,2.06-2.76,4.11-4.13,6.17s-2.72,4.1-4.08,6.14c-0.71,1.07-1.43,2.14-2.14,3.21C52.4,85.44,51.84,85.8,51.2,85.86"/>
	<path id="Trazado_3_00000145037705469805146210000013917553819379427007_" class="st1" d="M45.59,58.31c0-1.74,0.44-3.46,1.26-5
		c0.77-1.52,2.01-2.73,3.55-3.46c1.86-0.92,4.08-0.74,5.77,0.45c1.47,0.97,2.59,2.38,3.21,4.02c0.97,2.4,1.06,5.07,0.26,7.53
		c-0.48,1.59-1.41,3.01-2.66,4.11c-0.94,0.84-2.1,1.39-3.35,1.57c-1.4,0.17-2.82-0.17-4-0.95c-1.16-0.75-2.11-1.78-2.76-3
		c-0.49-0.85-0.83-1.78-1.01-2.74c-0.14-0.83-0.23-1.67-0.34-2.5L45.59,58.31 M56.56,58.4l0.05-0.01c-0.09-0.61-0.14-1.24-0.28-1.84
		c-0.23-1.2-0.87-2.28-1.82-3.05c-0.94-0.77-2.29-0.77-3.23-0.01c-0.68,0.54-1.2,1.24-1.51,2.05c-0.6,1.49-0.72,3.13-0.34,4.69
		c0.22,1.17,0.82,2.22,1.72,3c0.77,0.72,1.9,0.88,2.84,0.42c0.6-0.3,1.1-0.76,1.46-1.33C56.2,61.16,56.59,59.8,56.56,58.4"/>
	<path id="Trazado_4_00000174592514115233021250000015791683233156173972_" class="st1" d="M78.51,76.94
		c-0.01,1.1-0.19,2.2-0.54,3.25c-0.29,0.93-0.74,1.8-1.31,2.59c-0.88,1.3-2.16,2.29-3.65,2.8c-1.63,0.55-3.43,0.33-4.88-0.6
		c-1.36-0.85-2.45-2.07-3.14-3.52c-0.46-0.94-0.78-1.94-0.93-2.97c-0.15-0.93-0.18-1.88-0.1-2.82c0.13-1.32,0.5-2.61,1.1-3.8
		c0.66-1.34,1.67-2.48,2.92-3.3c1.98-1.31,4.56-1.29,6.52,0.04c1.38,0.93,2.46,2.25,3.11,3.79C78.23,73.83,78.53,75.38,78.51,76.94
		 M74.88,76.73c0.01-0.72-0.09-1.44-0.29-2.14c-0.27-1.07-0.87-2.03-1.71-2.74c-0.96-0.81-2.36-0.81-3.32-0.01
		c-0.65,0.52-1.15,1.21-1.45,1.99c-0.78,1.86-0.78,3.95,0,5.8c0.32,0.88,0.92,1.64,1.7,2.16c0.74,0.51,1.71,0.57,2.51,0.16
		c0.69-0.36,1.26-0.92,1.63-1.6C74.58,79.25,74.9,78,74.88,76.73"/>
	<path id="Trazado_5_00000137826188806103223410000003299594205266310275_" class="st1" d="M38.21,45.38c0,0.65,0.02,1.3,0,1.95
		c0.01,0.65-0.32,1.26-0.87,1.61c-0.83,0.52-1.93,0.27-2.45-0.57c-0.11-0.18-0.19-0.37-0.23-0.58c-0.06-0.32-0.09-0.64-0.09-0.96
		c-0.01-1.06-0.01-2.12,0-3.18c-0.02-0.46,0.09-0.92,0.32-1.31c0.41-0.65,1.19-0.97,1.93-0.78c0.73,0.16,1.27,0.78,1.34,1.52
		c0.06,0.76,0.06,1.53,0.09,2.29L38.21,45.38"/>
	<path id="Trazado_6_00000023275065257933679780000015170441052996004780_" class="st1" d="M38.22,74.95c0,0.46,0,0.93,0,1.4
		c0.02,0.42-0.06,0.83-0.24,1.21c-0.38,0.73-1.21,1.11-2.01,0.92c-0.77-0.18-1.33-0.86-1.36-1.65c-0.05-0.93-0.05-1.87-0.05-2.81
		c-0.01-0.42,0.02-0.84,0.08-1.26c0.16-0.97,1.08-1.62,2.05-1.45c0.78,0.13,1.38,0.77,1.47,1.55c0.07,0.7,0.07,1.4,0.09,2.1
		L38.22,74.95"/>
	<path id="Trazado_7_00000087387589546525601410000014854439705421333153_" class="st1" d="M38.25,60.29
		c-0.03,0.66-0.01,1.34-0.1,2.01c-0.12,0.98-1.01,1.67-1.98,1.55c-0.86-0.11-1.52-0.82-1.56-1.69c-0.05-0.95-0.05-1.9-0.05-2.85
		c-0.01-0.41,0.02-0.81,0.08-1.22c0.16-0.97,1.08-1.62,2.04-1.46c0.79,0.13,1.39,0.77,1.47,1.57C38.22,58.9,38.22,59.59,38.25,60.29
		"/>
	<path id="Trazado_8_00000152223206453545382620000017115255874064827266_" class="st1" d="M38.21,89.59c0,0.57,0.01,1.13,0,1.69
		c0,0.42-0.13,0.82-0.38,1.16c-0.41,0.55-1.1,0.83-1.78,0.7c-0.72-0.13-1.28-0.69-1.41-1.41c-0.05-0.32-0.08-0.64-0.09-0.96
		c-0.01-0.88-0.03-1.76,0.01-2.64c0-0.41,0.08-0.82,0.24-1.2c0.32-0.71,1.08-1.11,1.85-0.98c0.8,0.11,1.42,0.76,1.5,1.56
		c0.07,0.69,0.06,1.38,0.09,2.08L38.21,89.59"/>
</g>
</svg>
