<svg id="_149303" data-name="149303" xmlns="http://www.w3.org/2000/svg" width="18.226" height="18.226" viewBox="0 0 18.226 18.226">
  <path id="Trazado_80915" data-name="Trazado 80915" d="M14.279,1.611l.015-.01-.4-.248c-.024-.015-.049-.027-.072-.041q-.2-.119-.4-.229c-.069-.037-.139-.072-.209-.107-.1-.052-.206-.1-.31-.149C12.837.8,12.776.77,12.714.743q-.244-.105-.494-.2l-.1-.035Q11.9.434,11.673.369L11.529.328C11.364.282,11.2.241,11.028.2L10.98.194C10.793.155,10.6.122,10.414.1L10.287.079Q10.064.05,9.837.032L9.684.021C9.495.008,9.3,0,9.113,0,8.905,0,8.7.009,8.5.023l-.16.012c-.192.016-.382.037-.57.065L7.709.108c-.19.029-.377.067-.562.108L6.964.258C6.793.3,6.624.345,6.457.4L6.3.446Q6.076.519,5.857.6c-.067.026-.134.052-.2.079-.168.069-.334.141-.5.22C5.107.928,5.055.957,5,.984q-.19.1-.375.2c-.062.035-.123.07-.184.106q-.231.139-.454.29c-.02.014-.042.026-.062.04l-.166.115,0,.007a9.112,9.112,0,1,0,10.517-.132Zm-9.7.308q.147-.093.3-.18c.056-.032.111-.065.167-.1.141-.077.284-.149.429-.218.063-.03.126-.057.189-.086q.159-.071.32-.135c.059-.024.118-.048.178-.07Q6.4,1.049,6.63.978C6.688.96,6.746.945,6.8.928q.183-.051.368-.1c.055-.013.111-.027.166-.039.17-.036.341-.068.513-.094L7.97.686q.218-.029.438-.047L8.561.627c.183-.011.367-.019.551-.019.161,0,.321.005.481.015.046,0,.091.007.137.01.115.009.23.018.345.031l.152.019c.111.015.221.031.331.05L10.7.759c.115.022.228.046.342.073l.126.029q.21.052.416.115l.042.012c.147.046.292.1.437.149.058.022.114.045.171.068.084.033.167.067.25.1s.143.063.214.1.127.06.19.092c.046.022.092.046.138.07A5.812,5.812,0,0,0,10.34,3.652a.8.8,0,0,0-.167.512.82.82,0,0,0-.308-.385,1.139,1.139,0,0,0-1.125.04l-.087.01c-.609.068-.945.106-.975.769a.949.949,0,0,0,.458.843.849.849,0,0,0,.232.1.325.325,0,0,0,.042.088l.122.169.2-.033a2.115,2.115,0,0,1,.4-.032.723.723,0,0,0,.07.4.675.675,0,0,0,.409.351c.171.053.186.1.207.175a.973.973,0,0,0,.608.68.914.914,0,0,0,.844-.163c.156-.118.245-.094.586.071a2.692,2.692,0,0,0,.859.288.183.183,0,0,1,.1.037,4.8,4.8,0,0,1,.62.894,2.766,2.766,0,0,0,1,1.166c.357.186-.043,1.233-.235,1.737-.039.1-.075.2-.1.28A4.8,4.8,0,0,0,13.079,12.8a5.243,5.243,0,0,1-.891,1.052,5.106,5.106,0,0,1-1.678,1.024.159.159,0,0,1-.18-.05.151.151,0,0,1-.018-.177c.6-1.073,1.292-2.586.4-3.329a2.356,2.356,0,0,1-.84-2.692.808.808,0,0,0-.406-1.02,1.142,1.142,0,0,1-.072-.334,1.9,1.9,0,0,0-.267-.854A.907.907,0,0,0,8.8,6.151a3.41,3.41,0,0,0-1.071-.283,3.619,3.619,0,0,1-.8-.179C5.929,5.3,5.213,3.669,4.69,2.477c-.075-.171-.147-.334-.216-.488Zm4.529,15.7A8.5,8.5,0,0,1,3.967,2.347c.054.121.109.245.166.375.6,1.362,1.341,3.058,2.584,3.535a4.106,4.106,0,0,0,.927.213,2.89,2.89,0,0,1,.892.228.373.373,0,0,1,.083.063,1.389,1.389,0,0,1,.166.592.921.921,0,0,0,.381.783c.1.051.181.155.138.261a2.95,2.95,0,0,0,1.015,3.389c.279.231.412.863-.538,2.564a.759.759,0,0,0,.085.866.767.767,0,0,0,.587.275.783.783,0,0,0,.261-.045,5.862,5.862,0,0,0,2.864-2.3,4.132,4.132,0,0,1,.941-1.057.361.361,0,0,0,.13-.175c.033-.1.076-.209.123-.334.312-.819.784-2.057-.053-2.492a2.341,2.341,0,0,1-.758-.935,5.369,5.369,0,0,0-.7-1.006.766.766,0,0,0-.465-.221,2.117,2.117,0,0,1-.672-.232,1.05,1.05,0,0,0-1.215-.01.321.321,0,0,1-.286.072.38.38,0,0,1-.217-.273A.81.81,0,0,0,9.789,5.9a.072.072,0,0,1-.043-.04.123.123,0,0,1,0-.1.431.431,0,0,0-.065-.434.733.733,0,0,0-.577-.2.3.3,0,0,0-.08-.143l-.184-.169-.207.122a.166.166,0,0,1-.18-.012.343.343,0,0,1-.165-.295A1.09,1.09,0,0,1,8.3,4.494a3.579,3.579,0,0,1,.425-.061l.184-.021.045-.021c.271-.126.488-.164.581-.1.037.025.158.142.144.631l-.008.27.267.039a.8.8,0,0,0,.764-.2.86.86,0,0,0,.088-.839.194.194,0,0,1,.035-.166,5.367,5.367,0,0,1,2.888-2.06,8.5,8.5,0,0,1-4.6,15.656Z" fill="#5f5f5f"/>
</svg>
