<?xml version="1.0" encoding="UTF-8"?>
<svg xmlns="http://www.w3.org/2000/svg" xmlns:xlink="http://www.w3.org/1999/xlink" width="20" height="20" viewBox="0 0 400 400" version="1.1">
<g id="surface1">
<path style=" stroke:none;fill-rule:nonzero;fill:rgb(14.901961%,54.901961%,84.313725%);fill-opacity:1;" d="M 349.6875 331.914062 L 49.125 331.914062 L 51.523438 331.671875 C 51.007812 331.515625 50.484375 331.429688 49.921875 331.390625 C 46.640625 331.195312 43.484375 330.3125 40.601562 328.789062 C 36.445312 326.789062 32.804688 323.789062 30.046875 320.070312 C 27.28125 316.515625 25.445312 312.3125 24.726562 307.875 C 24.28125 304.992188 24.085938 302.070312 24.085938 299.148438 C 24.046875 281.390625 24.046875 263.59375 24.085938 245.828125 C 24.046875 244.273438 24.28125 242.75 24.804688 241.3125 C 25.84375 238.632812 28.40625 236.875 31.242188 236.789062 C 33.6875 236.671875 36.164062 236.390625 38.5625 235.992188 C 48.40625 234.109375 57.007812 228.195312 62.28125 219.671875 C 68.367188 210.429688 69.804688 198.914062 66.164062 188.515625 C 64.085938 182.109375 60.203125 176.429688 55.007812 172.148438 C 50.320312 168.03125 44.640625 165.273438 38.5625 164.109375 C 36.125 163.632812 33.601562 163.554688 31.164062 163.3125 C 27.640625 163.195312 24.726562 160.515625 24.28125 156.992188 C 24.125 156.03125 24.046875 155.070312 24.046875 154.070312 C 24.046875 135.914062 24.046875 117.789062 24.046875 99.632812 C 24.046875 97.109375 24.242188 94.59375 24.6875 92.109375 C 25.6875 86.554688 28.28125 81.429688 32.203125 77.351562 C 35.28125 74.109375 39.085938 71.59375 43.28125 70.03125 C 47.203125 68.671875 51.367188 67.992188 55.523438 68.109375 C 150.085938 68.109375 244.640625 68.109375 339.203125 68.109375 C 342.640625 68.109375 346.125 68.234375 349.5625 68.46875 C 354.84375 68.914062 359.882812 70.875 364.046875 74.109375 C 367.882812 76.953125 370.960938 80.710938 372.960938 85.03125 C 374.445312 87.875 375.28125 91.03125 375.40625 94.234375 C 375.40625 94.75 375.484375 95.273438 375.523438 95.789062 L 375.640625 95.789062 L 375.921875 94.75 L 375.921875 156.234375 C 375.84375 156.46875 375.726562 156.710938 375.6875 156.953125 C 375.242188 160.59375 372.125 163.3125 368.484375 163.273438 C 366.125 163.515625 363.726562 163.59375 361.40625 164.070312 C 352.046875 165.875 343.804688 171.273438 338.484375 179.148438 C 327.523438 194.828125 330.5625 216.3125 345.445312 228.351562 C 350.28125 232.429688 356.164062 235.109375 362.445312 236.109375 C 364.601562 236.46875 366.765625 236.515625 368.921875 236.75 C 372.320312 236.875 375.125 239.46875 375.5625 242.828125 C 375.601562 242.992188 375.804688 243.109375 375.921875 243.234375 L 375.921875 303.554688 C 375.765625 304.875 375.640625 306.195312 375.367188 307.515625 C 374.5625 311.828125 372.84375 315.953125 370.28125 319.554688 C 367.242188 323.828125 363.125 327.148438 358.320312 329.273438 C 355.484375 330.710938 352.320312 331.46875 349.164062 331.429688 C 348.921875 331.429688 348.640625 331.429688 348.40625 331.46875 C 348.40625 331.515625 348.40625 331.554688 348.40625 331.59375 L 349.6875 331.914062 M 199.445312 82.75 L 53.921875 82.75 C 47.164062 82.429688 41.046875 86.875 39.28125 93.429688 C 38.882812 95.109375 38.6875 96.789062 38.726562 98.515625 C 38.6875 115.148438 38.6875 131.828125 38.6875 148.46875 C 38.6875 148.992188 38.804688 149.273438 39.367188 149.351562 C 40.085938 149.429688 40.765625 149.59375 41.484375 149.75 C 51.84375 151.875 61.28125 157.109375 68.484375 164.789062 C 79.6875 176.351562 84.6875 192.554688 81.882812 208.429688 C 80.484375 217.390625 76.640625 225.789062 70.765625 232.710938 C 64.601562 240.195312 56.367188 245.75 47.125 248.710938 C 44.640625 249.515625 42.085938 249.953125 39.5625 250.554688 C 38.882812 250.710938 38.5625 250.953125 38.640625 251.671875 C 38.726562 252.515625 38.726562 253.390625 38.726562 254.234375 C 38.726562 269.789062 38.726562 285.390625 38.726562 300.953125 C 38.726562 302.03125 38.765625 303.109375 38.804688 304.195312 C 39.40625 310.554688 44.164062 315.710938 50.40625 316.914062 C 52.921875 317.195312 55.445312 317.3125 57.921875 317.234375 C 126.28125 317.234375 194.640625 317.234375 263.007812 317.234375 C 290.320312 317.234375 317.640625 317.234375 344.960938 317.234375 C 346.6875 317.3125 348.40625 317.148438 350.085938 316.828125 C 356.882812 315.234375 361.601562 308.992188 361.28125 301.992188 C 361.242188 285.148438 361.242188 268.273438 361.28125 251.429688 C 361.28125 250.914062 361.125 250.710938 360.640625 250.632812 C 359.921875 250.515625 359.242188 250.429688 358.523438 250.273438 C 346.445312 247.914062 335.6875 241.195312 328.203125 231.429688 C 318.882812 219.828125 315.28125 204.671875 318.40625 190.109375 C 321.203125 175.03125 330.726562 162.109375 344.320312 154.992188 C 349.28125 152.234375 354.6875 150.351562 360.28125 149.46875 C 360.765625 149.390625 361.320312 149.46875 361.320312 148.59375 C 361.28125 140.828125 361.242188 133.070312 361.28125 125.3125 C 361.28125 116.3125 361.28125 107.273438 361.320312 98.273438 C 361.445312 95.3125 360.726562 92.390625 359.203125 89.828125 C 356.367188 85.195312 351.203125 82.46875 345.765625 82.75 C 297.007812 82.789062 248.242188 82.789062 199.445312 82.75 "/>
<path style=" stroke:none;fill-rule:nonzero;fill:rgb(14.901961%,54.901961%,84.313725%);fill-opacity:1;" d="M 178.601562 273.148438 C 174.601562 273.390625 171.164062 270.351562 170.921875 266.351562 C 170.84375 265.3125 171.007812 264.273438 171.40625 263.273438 C 171.804688 262.3125 172.320312 261.390625 172.921875 260.515625 C 179.882812 250.070312 186.84375 239.632812 193.804688 229.195312 C 202.804688 215.710938 211.804688 202.234375 220.804688 188.710938 L 255.164062 137.195312 C 256.5625 135.109375 257.882812 133.03125 259.320312 130.992188 C 260.320312 129.3125 261.84375 127.992188 263.6875 127.273438 C 266.367188 126.273438 269.320312 127.070312 271.203125 129.234375 C 273.164062 131.070312 273.726562 133.953125 272.6875 136.429688 C 272.320312 137.351562 271.882812 138.195312 271.367188 139.03125 C 264.320312 149.710938 257.242188 160.351562 250.164062 170.992188 C 242.125 183.070312 234.085938 195.109375 226.046875 207.195312 C 220.5625 215.429688 215.007812 223.632812 209.523438 231.875 C 204.046875 240.109375 198.640625 248.273438 193.203125 256.429688 C 190.367188 260.710938 187.484375 264.992188 184.640625 269.273438 C 183.40625 271.46875 181.164062 272.914062 178.601562 273.148438 "/>
<path style=" stroke:none;fill-rule:nonzero;fill:rgb(14.901961%,54.901961%,84.313725%);fill-opacity:1;" d="M 156.164062 162.953125 C 156.164062 155.992188 157.921875 149.109375 161.203125 142.953125 C 164.28125 136.875 169.242188 132.03125 175.40625 129.109375 C 182.84375 125.429688 191.726562 126.148438 198.484375 130.914062 C 204.367188 134.789062 208.84375 140.429688 211.320312 146.992188 C 215.203125 156.59375 215.5625 167.273438 212.367188 177.109375 C 210.445312 183.46875 206.726562 189.148438 201.726562 193.554688 C 197.960938 196.914062 193.320312 199.109375 188.320312 199.828125 C 182.726562 200.515625 177.046875 199.148438 172.320312 196.03125 C 167.6875 193.03125 163.882812 188.914062 161.28125 184.03125 C 159.320312 180.632812 157.960938 176.914062 157.242188 173.070312 C 156.6875 169.75 156.320312 166.390625 155.882812 163.070312 L 156.164062 162.953125 M 200.046875 163.3125 L 200.242188 163.273438 C 199.882812 160.828125 199.6875 158.3125 199.125 155.914062 C 198.203125 151.109375 195.640625 146.789062 191.84375 143.710938 C 188.085938 140.632812 182.6875 140.632812 178.921875 143.671875 C 176.203125 145.828125 174.125 148.632812 172.882812 151.875 C 170.484375 157.828125 170.007812 164.390625 171.523438 170.632812 C 172.40625 175.3125 174.804688 179.515625 178.40625 182.632812 C 181.484375 185.515625 186.007812 186.148438 189.765625 184.3125 C 192.164062 183.109375 194.164062 181.273438 195.601562 178.992188 C 198.601562 174.351562 200.164062 168.914062 200.046875 163.3125 "/>
<path style=" stroke:none;fill-rule:nonzero;fill:rgb(14.901961%,54.901961%,84.313725%);fill-opacity:1;" d="M 287.84375 237.46875 C 287.804688 241.875 287.085938 246.273438 285.6875 250.46875 C 284.523438 254.195312 282.726562 257.671875 280.445312 260.828125 C 276.921875 266.03125 271.804688 269.992188 265.84375 272.03125 C 259.320312 274.234375 252.125 273.351562 246.320312 269.632812 C 240.882812 266.234375 236.523438 261.351562 233.765625 255.554688 C 231.921875 251.789062 230.640625 247.789062 230.046875 243.671875 C 229.445312 239.953125 229.320312 236.148438 229.640625 232.390625 C 230.164062 227.109375 231.640625 221.953125 234.046875 217.195312 C 236.6875 211.828125 240.726562 207.273438 245.726562 203.992188 C 253.640625 198.75 263.960938 198.828125 271.804688 204.148438 C 277.320312 207.875 281.640625 213.148438 284.242188 219.3125 C 286.726562 225.03125 287.921875 231.234375 287.84375 237.46875 M 273.320312 236.632812 C 273.367188 233.75 272.960938 230.875 272.164062 228.070312 C 271.085938 223.789062 268.6875 219.953125 265.320312 217.109375 C 261.484375 213.875 255.882812 213.875 252.046875 217.070312 C 249.445312 219.148438 247.445312 221.914062 246.242188 225.03125 C 243.125 232.46875 243.125 240.828125 246.242188 248.234375 C 247.523438 251.75 249.921875 254.789062 253.046875 256.875 C 256.007812 258.914062 259.882812 259.148438 263.085938 257.515625 C 265.84375 256.070312 268.125 253.828125 269.601562 251.109375 C 272.125 246.710938 273.40625 241.710938 273.320312 236.632812 "/>
<path style=" stroke:none;fill-rule:nonzero;fill:rgb(14.901961%,54.901961%,84.313725%);fill-opacity:1;" d="M 126.640625 111.234375 C 126.640625 113.828125 126.726562 116.429688 126.640625 119.03125 C 126.6875 121.632812 125.367188 124.070312 123.164062 125.46875 C 119.84375 127.554688 115.445312 126.554688 113.367188 123.195312 C 112.921875 122.46875 112.601562 121.710938 112.445312 120.875 C 112.203125 119.59375 112.085938 118.3125 112.085938 117.03125 C 112.046875 112.789062 112.046875 108.554688 112.085938 104.3125 C 112.007812 102.46875 112.445312 100.632812 113.367188 99.070312 C 115.007812 96.46875 118.125 95.195312 121.085938 95.953125 C 124.007812 96.59375 126.164062 99.070312 126.445312 102.03125 C 126.6875 105.070312 126.6875 108.148438 126.804688 111.195312 L 126.640625 111.234375 "/>
<path style=" stroke:none;fill-rule:nonzero;fill:rgb(14.901961%,54.901961%,84.313725%);fill-opacity:1;" d="M 126.6875 229.515625 C 126.6875 231.351562 126.6875 233.234375 126.6875 235.109375 C 126.765625 236.789062 126.445312 238.429688 125.726562 239.953125 C 124.203125 242.875 120.882812 244.390625 117.6875 243.632812 C 114.601562 242.914062 112.367188 240.195312 112.242188 237.03125 C 112.046875 233.3125 112.046875 229.554688 112.046875 225.789062 C 112.007812 224.109375 112.125 222.429688 112.367188 220.75 C 113.007812 216.875 116.6875 214.273438 120.5625 214.953125 C 123.6875 215.46875 126.085938 218.03125 126.445312 221.148438 C 126.726562 223.953125 126.726562 226.75 126.804688 229.554688 L 126.6875 229.515625 "/>
<path style=" stroke:none;fill-rule:nonzero;fill:rgb(14.901961%,54.901961%,84.313725%);fill-opacity:1;" d="M 126.804688 170.875 C 126.6875 173.515625 126.765625 176.234375 126.40625 178.914062 C 125.921875 182.828125 122.367188 185.59375 118.484375 185.109375 C 115.046875 184.671875 112.40625 181.828125 112.242188 178.351562 C 112.046875 174.554688 112.046875 170.75 112.046875 166.953125 C 112.007812 165.3125 112.125 163.710938 112.367188 162.070312 C 113.007812 158.195312 116.6875 155.59375 120.523438 156.234375 C 123.6875 156.75 126.085938 159.3125 126.40625 162.515625 C 126.6875 165.3125 126.6875 168.070312 126.804688 170.875 "/>
<path style=" stroke:none;fill-rule:nonzero;fill:rgb(14.901961%,54.901961%,84.313725%);fill-opacity:1;" d="M 126.640625 288.070312 C 126.640625 290.351562 126.6875 292.59375 126.640625 294.828125 C 126.640625 296.515625 126.125 298.109375 125.125 299.46875 C 123.484375 301.671875 120.726562 302.789062 118.007812 302.273438 C 115.125 301.75 112.882812 299.515625 112.367188 296.632812 C 112.164062 295.351562 112.046875 294.070312 112.007812 292.789062 C 111.960938 289.273438 111.882812 285.75 112.046875 282.234375 C 112.046875 280.59375 112.367188 278.953125 113.007812 277.429688 C 114.28125 274.59375 117.320312 272.992188 120.40625 273.515625 C 123.601562 273.953125 126.085938 276.554688 126.40625 279.75 C 126.6875 282.515625 126.640625 285.273438 126.765625 288.070312 L 126.640625 288.070312 "/>
</g>
</svg>
