<svg id="_1850966" data-name="1850966" xmlns="http://www.w3.org/2000/svg" width="15.145" height="13.607" viewBox="0 0 15.145 13.607">
  <path id="Trazado_80854" data-name="Trazado 80854" d="M146.592,40.3a.3.3,0,1,1-.3-.3A.3.3,0,0,1,146.592,40.3Zm0,0" transform="translate(-141.681 -38.817)" fill="#008cde"/>
  <path id="Trazado_80855" data-name="Trazado 80855" d="M106.592,40.3a.3.3,0,1,1-.3-.3A.3.3,0,0,1,106.592,40.3Zm0,0" transform="translate(-102.865 -38.817)" fill="#008cde"/>
  <path id="Trazado_80856" data-name="Trazado 80856" d="M66.592,40.3a.3.3,0,1,1-.3-.3A.3.3,0,0,1,66.592,40.3Zm0,0" transform="translate(-64.048 -38.817)" fill="#008cde"/>
  <path id="Trazado_80857" data-name="Trazado 80857" d="M76.944,140H66.3a.3.3,0,0,0-.3.3v1.775a.3.3,0,0,0,.3.3H76.944a.3.3,0,0,0,.3-.3V140.3A.3.3,0,0,0,76.944,140Zm-.3,1.775H66.592v-1.183H76.649Zm0,0" transform="translate(-64.048 -135.859)" fill="#008cde"/>
  <path id="Trazado_80858" data-name="Trazado 80858" d="M71.62,260H66.3a.3.3,0,0,0-.3.3v3.55a.3.3,0,0,0,.3.3H71.62a.3.3,0,0,0,.3-.3V260.3A.3.3,0,0,0,71.62,260Zm-.3,3.55H66.592v-2.958h4.733Zm0,0" transform="translate(-64.048 -252.309)" fill="#008cde"/>
  <path id="Trazado_80859" data-name="Trazado 80859" d="M309.845,260H306.3a.3.3,0,0,0-.3.3v3.55a.3.3,0,0,0,.3.3h3.55a.3.3,0,0,0,.3-.3V260.3A.3.3,0,0,0,309.845,260Zm-.3,3.55h-2.958v-2.958h2.958Zm0,0" transform="translate(-296.949 -252.309)" fill="#008cde"/>
  <path id="Trazado_80860" data-name="Trazado 80860" d="M246.592.3a.3.3,0,1,1-.3-.3A.3.3,0,0,1,246.592.3Zm0,0" transform="translate(-238.723)" fill="#008cde"/>
  <path id="Trazado_80861" data-name="Trazado 80861" d="M14.257,0H8.9a.3.3,0,1,0,0,.592h5.354a.3.3,0,0,1,.3.3V2.366H.592V.887a.3.3,0,0,1,.3-.3H6.241a.3.3,0,0,0,0-.592H.887A.888.888,0,0,0,0,.887V12.719a.888.888,0,0,0,.887.887h13.37a.888.888,0,0,0,.887-.887V.887A.888.888,0,0,0,14.257,0Zm0,13.015H.887a.3.3,0,0,1-.3-.3V2.958H14.553v9.761A.3.3,0,0,1,14.257,13.015Zm0,0" fill="#008cde"/>
</svg>
