<svg xmlns="http://www.w3.org/2000/svg" width="16.226" height="16.901" viewBox="0 0 16.226 16.901">
  <g id="_152010" data-name="152010" transform="translate(-0.956)">
    <g id="Grupo_9805" data-name="Grupo 9805" transform="translate(0.956 1.59)">
      <path id="Trazado_80916" data-name="Trazado 80916" d="M17.182,17.691H.956l0-.355a3.082,3.082,0,0,1,2.388-2.981V10.223a5.723,5.723,0,1,1,11.446,0v4.132a3.083,3.083,0,0,1,2.388,2.981ZM1.693,16.985H16.445A2.374,2.374,0,0,0,14.4,15l-.31-.038V10.223a5.016,5.016,0,0,0-10.032,0v4.741L3.742,15A2.374,2.374,0,0,0,1.693,16.985Z" transform="translate(-0.956 -4.5)" fill="#008cde"/>
    </g>
    <g id="Grupo_9806" data-name="Grupo 9806" transform="translate(7.376)">
      <path id="Trazado_80917" data-name="Trazado 80917" d="M19.832,2.116h-.707V1.693a1.693,1.693,0,1,1,3.386,0v.416H21.8V1.693a.986.986,0,1,0-1.973,0Z" transform="translate(-19.125 0)" fill="#008cde"/>
    </g>
    <g id="Grupo_9807" data-name="Grupo 9807" transform="translate(6.179 14.365)">
      <path id="Trazado_80918" data-name="Trazado 80918" d="M18.624,43.192a2.953,2.953,0,0,1-2.885-2.352l.692-.141a2.238,2.238,0,0,0,4.393-.043l.695.128A2.941,2.941,0,0,1,18.624,43.192Z" transform="translate(-15.739 -40.655)" fill="#008cde"/>
    </g>
    <g id="Grupo_9808" data-name="Grupo 9808" transform="translate(3.699 11.388)">
      <rect id="Rect치ngulo_8590" data-name="Rect치ngulo 8590" width="1.301" height="0.707" fill="#008cde"/>
    </g>
    <g id="Grupo_9809" data-name="Grupo 9809" transform="translate(7.037 11.388)">
      <rect id="Rect치ngulo_8591" data-name="Rect치ngulo 8591" width="7.401" height="0.707" fill="#008cde"/>
    </g>
  </g>
</svg>
