<svg xmlns="http://www.w3.org/2000/svg" width="16.799" height="21" viewBox="0 0 16.799 21">
  <g id="_1909666" data-name="1909666" transform="translate(-8 -2.001)">
    <path id="Trazado_80919" data-name="Trazado 80919" d="M22.672,14.021l-3.221-1.611a3.863,3.863,0,0,0,1.007-1.724h0l1.12-.84a1.056,1.056,0,0,0,.42-.84v-.35a1.051,1.051,0,0,0-1.05-1.05H20.6V2.7a.7.7,0,0,0-1.12-.56l-.654.49a.352.352,0,0,1-.21.07H13.95A1.752,1.752,0,0,0,12.2,4.45V7.607h-.35a1.051,1.051,0,0,0-1.05,1.05v.35a1.056,1.056,0,0,0,.42.84l1.12.84h0a3.863,3.863,0,0,0,1.007,1.724l-3.22,1.61A3.828,3.828,0,0,0,8,17.463V23l16.8,0V17.464a3.829,3.829,0,0,0-2.127-3.443ZM13.936,12.9l1.229.893a2.094,2.094,0,0,0,2.47,0l1.229-.893.578.289A3.145,3.145,0,0,1,16.467,15.3h-.135a3.145,3.145,0,0,1-2.974-2.113ZM19.2,18.449v.35h-.7v.7h.7v2.45a.35.35,0,0,1-.35.35h-4.9a.35.35,0,0,1-.35-.35v-3.5a.35.35,0,0,1,.35-.35h1.266l.253-.507a.348.348,0,0,1,.313-.193h1.234a.348.348,0,0,1,.313.193l.253.507h1.266A.35.35,0,0,1,19.2,18.449Zm-.35-1.05h-.834l-.06-.12a1.045,1.045,0,0,0-.939-.58H15.782a1.045,1.045,0,0,0-.939.58l-.06.12H13.95c-.016,0-.03,0-.046,0L13.53,14.79a3.842,3.842,0,0,0,2.8,1.21h.135a3.842,3.842,0,0,0,2.8-1.21L18.895,17.4C18.879,17.4,18.865,17.4,18.849,17.4Zm2.1-9.092a.35.35,0,0,1,.35.35v.35a.353.353,0,0,1-.14.28l-.562.422c0-.011,0-.023,0-.034V8.307ZM12.9,4.45A1.051,1.051,0,0,1,13.95,3.4h4.666a1.055,1.055,0,0,0,.63-.21L19.9,2.7v3.7a9.077,9.077,0,0,0-5.029-.353l-1.97.422ZM11.64,9.287a.352.352,0,0,1-.14-.28v-.35a.35.35,0,0,1,.35-.35h.35V9.675c0,.011,0,.022,0,.034Zm1.26-2.1,2.117-.454a8.389,8.389,0,0,1,4.709.349l.173.065V9.675a3.16,3.16,0,0,1-1.3,2.547l-1.379,1a1.4,1.4,0,0,1-1.647,0l-1.379-1a3.16,3.16,0,0,1-1.3-2.547ZM8.7,17.463a3.132,3.132,0,0,1,1.741-2.817l2.2-1.1.591,4.14a1.044,1.044,0,0,0-.337.766v3.5a1.038,1.038,0,0,0,.065.35H12.2V18.8h-.7v3.5H8.7ZM24.1,22.3H21.3V18.8h-.7v3.5h-.765a1.038,1.038,0,0,0,.065-.351v-3.5a1.044,1.044,0,0,0-.337-.766l.591-4.14,2.2,1.1a3.132,3.132,0,0,1,1.74,2.817Z" transform="translate(0)" fill="#008cde"/>
    <path id="Trazado_80920" data-name="Trazado 80920" d="M29.4,50a1.4,1.4,0,1,0,1.4,1.4A1.4,1.4,0,0,0,29.4,50Zm0,2.1a.7.7,0,1,1,.7-.7A.7.7,0,0,1,29.4,52.1Z" transform="translate(-13.001 -31.201)" fill="#008cde"/>
  </g>
</svg>
