<svg xmlns="http://www.w3.org/2000/svg" width="19.226" height="20.036" viewBox="0 0 19.226 20.036">
  <g id="_879757" data-name="879757" transform="translate(-10.359 0.002)">
    <g id="Grupo_9837" data-name="Grupo 9837" transform="translate(10.359 -0.002)">
      <g id="Grupo_9836" data-name="Grupo 9836" transform="translate(0 0)">
        <path id="Trazado_80972" data-name="Trazado 80972" d="M28.658,10.276a.587.587,0,0,1,0-.519L29.4,8.228a1.739,1.739,0,0,0-.75-2.31l-1.5-.8a.587.587,0,0,1-.305-.42l-.294-1.676A1.739,1.739,0,0,0,24.587,1.6L22.9,1.836a.587.587,0,0,1-.494-.16L21.186.492a1.739,1.739,0,0,0-2.429,0L17.534,1.675a.587.587,0,0,1-.494.16L15.356,1.6a1.739,1.739,0,0,0-1.965,1.428L13.1,4.7a.587.587,0,0,1-.305.42l-1.5.8a1.739,1.739,0,0,0-.75,2.31l.747,1.529a.587.587,0,0,1,0,.519L10.539,11.8a1.739,1.739,0,0,0,.75,2.31l1.5.8a.587.587,0,0,1,.305.42l.294,1.676a1.738,1.738,0,0,0,1.715,1.445,1.787,1.787,0,0,0,.25-.018l1.685-.238a.587.587,0,0,1,.494.16l1.223,1.183a1.739,1.739,0,0,0,2.429,0l1.223-1.183a.588.588,0,0,1,.494-.16l1.685.238a1.739,1.739,0,0,0,1.965-1.428l.294-1.676a.587.587,0,0,1,.305-.42l1.5-.8a1.739,1.739,0,0,0,.75-2.31Zm-.545,2.818-1.5.8a1.735,1.735,0,0,0-.9,1.241l-.294,1.676a.588.588,0,0,1-.665.483l-1.685-.238a1.735,1.735,0,0,0-1.459.474L20.383,18.71a.589.589,0,0,1-.822,0l-1.223-1.183a1.734,1.734,0,0,0-1.21-.492,1.774,1.774,0,0,0-.249.018l-1.685.238a.589.589,0,0,1-.665-.483l-.294-1.676a1.735,1.735,0,0,0-.9-1.241l-1.5-.8a.588.588,0,0,1-.254-.781l.747-1.529a1.735,1.735,0,0,0,0-1.534l-.747-1.529a.588.588,0,0,1,.254-.781l1.5-.8a1.735,1.735,0,0,0,.9-1.241l.294-1.676a.588.588,0,0,1,.665-.483l1.685.238a1.735,1.735,0,0,0,1.459-.474l1.223-1.183a.589.589,0,0,1,.822,0l1.223,1.183a1.735,1.735,0,0,0,1.459.474l1.685-.238a.589.589,0,0,1,.665.483L25.708,4.9a1.735,1.735,0,0,0,.9,1.241l1.5.8a.588.588,0,0,1,.254.781l-.747,1.529a1.735,1.735,0,0,0,0,1.534l.747,1.529A.589.589,0,0,1,28.113,13.094Z" transform="translate(-10.359 0.002)" fill="#008cde"/>
      </g>
    </g>
    <g id="Grupo_9839" data-name="Grupo 9839" transform="translate(15.581 5.625)">
      <g id="Grupo_9838" data-name="Grupo 9838" transform="translate(0)">
        <path id="Trazado_80973" data-name="Trazado 80973" d="M152.4,143.961a.578.578,0,0,0-.817,0l-7.627,7.627a.578.578,0,1,0,.817.817l7.627-7.627A.578.578,0,0,0,152.4,143.961Z" transform="translate(-143.791 -143.791)" fill="#008cde"/>
      </g>
    </g>
    <g id="Grupo_9841" data-name="Grupo 9841" transform="translate(15.542 4.816)">
      <g id="Grupo_9840" data-name="Grupo 9840">
        <path id="Trazado_80974" data-name="Trazado 80974" d="M144.921,123.116a2.119,2.119,0,1,0,2.119,2.119A2.121,2.121,0,0,0,144.921,123.116Zm0,3.082a.963.963,0,1,1,.963-.963A.964.964,0,0,1,144.921,126.2Z" transform="translate(-142.802 -123.116)" fill="#008cde"/>
      </g>
    </g>
    <g id="Grupo_9843" data-name="Grupo 9843" transform="translate(20.164 10.979)">
      <g id="Grupo_9842" data-name="Grupo 9842">
        <path id="Trazado_80975" data-name="Trazado 80975" d="M263.041,280.61a2.119,2.119,0,1,0,2.119,2.119A2.121,2.121,0,0,0,263.041,280.61Zm0,3.082a.963.963,0,1,1,.963-.963A.964.964,0,0,1,263.041,283.692Z" transform="translate(-260.922 -280.61)" fill="#008cde"/>
      </g>
    </g>
  </g>
</svg>
