<svg xmlns="http://www.w3.org/2000/svg" width="49" height="49" viewBox="0 0 49 49">
  <g id="Grupo_9910" data-name="Grupo 9910" transform="translate(635 -8486)">
    <g id="_849348" data-name="849348" transform="translate(-628 8497)">
      <g id="Grupo_9904" data-name="Grupo 9904" transform="translate(0 0)">
        <g id="Grupo_9903" data-name="Grupo 9903" transform="translate(0 0)">
          <path id="Trazado_81021" data-name="Trazado 81021" d="M24.291,60.306l-2.9-4.556H12.662l-2.9,4.556H0V82.386H34.052V60.306ZM13.757,57.745H20.3l1.63,2.561h-9.8Zm18.3,22.646H2V62.3H32.057Z" transform="translate(0 -55.75)" fill="#5f5f5f"/>
        </g>
      </g>
      <g id="Grupo_9906" data-name="Grupo 9906" transform="translate(9.876 8.446)">
        <g id="Grupo_9905" data-name="Grupo 9905" transform="translate(0 0)">
          <path id="Trazado_81022" data-name="Trazado 81022" d="M155.65,182.75a7.15,7.15,0,1,0,7.15,7.15A7.158,7.158,0,0,0,155.65,182.75Zm0,12.3A5.154,5.154,0,1,1,160.8,189.9,5.16,5.16,0,0,1,155.65,195.054Z" transform="translate(-148.5 -182.75)" fill="#5f5f5f"/>
        </g>
      </g>
      <g id="Grupo_9908" data-name="Grupo 9908" transform="translate(27.95 8.43)">
        <g id="Grupo_9907" data-name="Grupo 9907" transform="translate(0 0)">
          <rect id="Rect치ngulo_8905" data-name="Rect치ngulo 8905" width="2.028" height="2.028" fill="#5f5f5f"/>
        </g>
      </g>
    </g>
    <rect id="Rect치ngulo_8916" data-name="Rect치ngulo 8916" width="49" height="49" transform="translate(-635 8486)" fill="none"/>
  </g>
</svg>
