<svg xmlns="http://www.w3.org/2000/svg" width="20" height="26.667" viewBox="0 0 20 26.667">
  <g id="_481195" data-name="481195" transform="translate(-64)">
    <g id="Grupo_9880" data-name="Grupo 9880" transform="translate(64)">
      <g id="Grupo_9879" data-name="Grupo 9879">
        <path id="Trazado_81006" data-name="Trazado 81006" d="M214.242,281.342l-.35,3.152a.556.556,0,0,0,.552.617h2.222a.556.556,0,0,0,.552-.617l-.35-3.152a2.2,2.2,0,0,0,.909-1.787,2.222,2.222,0,0,0-4.444,0A2.2,2.2,0,0,0,214.242,281.342Zm1.313-2.9a1.107,1.107,0,0,1,.48,2.107.556.556,0,0,0-.31.562l.321,2.887h-.981l.321-2.887a.556.556,0,0,0-.31-.562,1.107,1.107,0,0,1,.48-2.107Z" transform="translate(-205.555 -262.889)" fill="#5f5f5f"/>
        <path id="Trazado_81007" data-name="Trazado 81007" d="M83.444,10H81.778V7.778a7.778,7.778,0,1,0-15.556,0V10H64.556a.555.555,0,0,0-.556.556V24.444a2.224,2.224,0,0,0,2.222,2.222H81.778A2.224,2.224,0,0,0,84,24.444V10.556A.555.555,0,0,0,83.444,10ZM67.333,7.778a6.667,6.667,0,1,1,13.333,0V10H79.556V7.778a5.556,5.556,0,0,0-11.111,0V10H67.333Zm11.111,0V10H69.556V7.778a4.444,4.444,0,0,1,8.889,0Zm4.444,16.667a1.113,1.113,0,0,1-1.111,1.111H66.222a1.113,1.113,0,0,1-1.111-1.111V11.111H82.889Z" transform="translate(-64)" fill="#5f5f5f"/>
      </g>
    </g>
  </g>
</svg>
