<svg xmlns="http://www.w3.org/2000/svg" width="17.226" height="15.072" viewBox="0 0 17.226 15.072">
  <g id="_2089672" data-name="2089672" transform="translate(0 -34.445)">
    <path id="Trazado_80921" data-name="Trazado 80921" d="M377.137,313.223a11.3,11.3,0,0,0-4.8-1.433,11.385,11.385,0,0,1,1.032.5,2.617,2.617,0,0,1,.92.912,10.015,10.015,0,0,1,2.314.955.521.521,0,0,1,.246.457v2.5h-2.153v1.077h2.691a.538.538,0,0,0,.538-.538v-3.042A1.6,1.6,0,0,0,377.137,313.223Z" transform="translate(-360.698 -268.677)" fill="#008cde"/>
    <path id="Trazado_80922" data-name="Trazado 80922" d="M12.133,312.355a11.744,11.744,0,0,0-11.346,0A1.6,1.6,0,0,0,0,313.746v3.042a.538.538,0,0,0,.538.538H12.381a.538.538,0,0,0,.538-.538v-3.042A1.6,1.6,0,0,0,12.133,312.355Zm-.29,3.894H1.077v-2.5a.521.521,0,0,1,.246-.457,10.65,10.65,0,0,1,10.274,0,.52.52,0,0,1,.246.457Z" transform="translate(0 -267.809)" fill="#008cde"/>
    <path id="Trazado_80923" data-name="Trazado 80923" d="M310.631,35.547a2.573,2.573,0,0,1,.268-.025,2.691,2.691,0,0,1,0,5.383,2.572,2.572,0,0,1-.268-.025,4.856,4.856,0,0,1-.815.924,3.678,3.678,0,0,0,1.083.178,3.768,3.768,0,0,0,0-7.536,3.678,3.678,0,0,0-1.083.178A4.857,4.857,0,0,1,310.631,35.547Z" transform="translate(-300.133)" fill="#008cde"/>
    <path id="Trazado_80924" data-name="Trazado 80924" d="M89.884,41.982a3.768,3.768,0,1,0-3.768-3.768A3.773,3.773,0,0,0,89.884,41.982Zm0-6.46a2.691,2.691,0,1,1-2.691,2.691A2.695,2.695,0,0,1,89.884,35.523Z" transform="translate(-83.424 -0.001)" fill="#008cde"/>
  </g>
</svg>
