<svg xmlns="http://www.w3.org/2000/svg" width="325.133" height="94.165" viewBox="0 0 325.133 94.165">
  <g id="Grupo_4223" data-name="Grupo 4223" transform="translate(796.522 -213.376)">
    <g id="Grupo_4159" data-name="Grupo 4159" transform="translate(-796.522 213.376)">
      <g id="Grupo_4157" data-name="Grupo 4157">
        <path id="Trazado_52024" data-name="Trazado 52024" d="M-726.352,247.013l2.809,22.77a1.748,1.748,0,0,0,1.738,1.533h.028a1.748,1.748,0,0,0,1.65-1.161,227.354,227.354,0,0,0,7.17-24.843q3.191-13.841,2.2-21.091a14.457,14.457,0,0,0-1.253-4.2,1.757,1.757,0,0,1,.647-2.22q6.772-4.412,13.071-4.424,10.807-.018,12.384,11.52.78,5.718-1.324,14.451a222.127,222.127,0,0,1-6.8,21.865q-3.953,11.058-4.785,13.528a1.741,1.741,0,0,0,.038,1.213l1.619,3.985a1.735,1.735,0,0,1-.344,1.859q-7.954,8.181-21.245,8.2-12.7.021-17.424-3.954a1.756,1.756,0,0,0-1.96-.206,37.531,37.531,0,0,1-17.688,4.221q-10.377.017-15.306-2.834t-5.85-9.59l-2.457-18.786q-3.192-23.378-10.555-32.967a28.848,28.848,0,0,0-5.791-5.659,1.761,1.761,0,0,1,.083-2.927,25.646,25.646,0,0,1,13.966-3.785A16.614,16.614,0,0,1-768,219.873a42.793,42.793,0,0,1,7.6,15.255,153.751,153.751,0,0,1,3.688,19.09l1.836,15.607a1.748,1.748,0,0,0,1.738,1.543h0a1.745,1.745,0,0,0,1.658-1.183,136.63,136.63,0,0,0,5.839-28.526,1.851,1.851,0,0,0-.043-.642,91.88,91.88,0,0,0-6.735-18.115,1.763,1.763,0,0,1,.522-2.183,24.064,24.064,0,0,1,5.725-3.334,25.636,25.636,0,0,1,9.013-1.291q11.78-.019,13.189,10.292.827,6.06-2.345,20.025A1.749,1.749,0,0,0-726.352,247.013Z" transform="translate(796.522 -213.376)" fill="#fff"/>
        <path id="Trazado_52025" data-name="Trazado 52025" d="M-470.122,316.294q-6.7.011-9.775-3.1t-3.875-8.98q-.8-5.872-.578-23.639.215-17.272.951-29.623a1.723,1.723,0,0,0-.431-1.248l-5.293-6.024a1.755,1.755,0,0,1,.454-2.678,78.766,78.766,0,0,1,8.95-4.5,24.5,24.5,0,0,1,9.362-1.9q7.782-.013,9.106,9.686.156,1.141.27,4.315a1.755,1.755,0,0,0,1.039,1.54l.147.065a21.6,21.6,0,0,1,7.511-11.5q5.378-4.145,13.432-4.158t13.749,6.87a33.243,33.243,0,0,1,7.091,17.094,32.328,32.328,0,0,1-6.759,24.928,29.8,29.8,0,0,1-12.075,8.956,45.074,45.074,0,0,1-18.124,3.45q-2.5,0-6.265-.313a1.761,1.761,0,0,0-1.9,1.877q.169,2.414.464,4.575a14.647,14.647,0,0,0,3.282,8.078,1.734,1.734,0,0,1-.216,2.53A16.84,16.84,0,0,1-470.122,316.294ZM-461.734,274l-.724,9.872a1.76,1.76,0,0,0,1.892,1.875q11.537-.85,17.769-8.05,6.769-7.823,5.5-17.114a20.608,20.608,0,0,0-.5-2.513c-1.842-6.922-10.161-10.116-15.885-5.809Q-460.485,257.387-461.734,274Z" transform="translate(669.622 -222.128)" fill="#fff"/>
        <path id="Trazado_52026" data-name="Trazado 52026" d="M-345.353,316.063q-6.7.011-9.775-3.1t-3.875-8.98q-.8-5.872-.578-23.639.215-17.271.951-29.623a1.726,1.726,0,0,0-.431-1.248l-5.293-6.024a1.755,1.755,0,0,1,.453-2.678,78.83,78.83,0,0,1,8.951-4.5,24.5,24.5,0,0,1,9.362-1.9q7.782-.013,9.106,9.686.156,1.141.27,4.315a1.755,1.755,0,0,0,1.039,1.54l.147.065a21.6,21.6,0,0,1,7.511-11.5q5.378-4.144,13.432-4.158t13.749,6.87a33.243,33.243,0,0,1,7.091,17.094A32.33,32.33,0,0,1-300,283.209a29.809,29.809,0,0,1-12.075,8.955,45.064,45.064,0,0,1-18.124,3.45q-2.5,0-6.265-.313a1.761,1.761,0,0,0-1.9,1.877q.169,2.414.463,4.575.72,5.268,3.283,8.078a1.735,1.735,0,0,1-.216,2.531A16.847,16.847,0,0,1-345.353,316.063Zm8.388-42.292-.724,9.872a1.76,1.76,0,0,0,1.892,1.875q11.537-.851,17.769-8.051,6.769-7.823,5.5-17.114a20.623,20.623,0,0,0-.5-2.513c-1.843-6.922-10.161-10.116-15.885-5.809Q-335.716,257.156-336.965,273.772Z" transform="translate(618.043 -222.033)" fill="#fff"/>
      </g>
      <g id="Grupo_4158" data-name="Grupo 4158" transform="translate(111.78 10.999)">
        <path id="Trazado_52027" data-name="Trazado 52027" d="M-554.448,253.322l-22.511-13a2.052,2.052,0,0,1,.012-3.555,34.622,34.622,0,0,1,17.367-4.644,34.764,34.764,0,0,1,6.521.618,2.056,2.056,0,0,1,1.678,2.016v16.792A2.044,2.044,0,0,1-554.448,253.322Z" transform="translate(594.397 -232.126)" fill="#ff7761"/>
        <path id="Trazado_52028" data-name="Trazado 52028" d="M-579.97,263.531-602.9,276.767a2.042,2.042,0,0,1-3.068-1.733c0-.072,0-.144,0-.216a34.666,34.666,0,0,1,8.626-22.927,2.061,2.061,0,0,1,2.58-.441l14.791,8.54A2.044,2.044,0,0,1-579.97,263.531Z" transform="translate(605.966 -240.002)" fill="#ff7761"/>
        <path id="Trazado_52029" data-name="Trazado 52029" d="M-519.411,269.713a2.044,2.044,0,0,1-3.065-1.77V261.77l-.051-.03V241.465a2.052,2.052,0,0,1,3.077-1.77,34.905,34.905,0,0,1,15.74,19.011,2.064,2.064,0,0,1-.9,2.465Z" transform="translate(571.473 -235.141)" fill="#ff7761"/>
        <path id="Trazado_52030" data-name="Trazado 52030" d="M-587.123,292.008a2.044,2.044,0,0,1,3.066,1.77v5.992l.08.046v20.276a2.052,2.052,0,0,1-3.075,1.772,34.907,34.907,0,0,1-15.717-18.869,2.062,2.062,0,0,1,.9-2.473Z" transform="translate(604.693 -256.767)" fill="#ff7761"/>
        <path id="Trazado_52031" data-name="Trazado 52031" d="M-531.727,301.31l22.595-13.045A2.04,2.04,0,0,1-506.066,290v.035a34.665,34.665,0,0,1-8.5,22.781,2.06,2.06,0,0,1-2.587.448l-14.574-8.414A2.044,2.044,0,0,1-531.727,301.31Z" transform="translate(575.698 -255.219)" fill="#ff7761"/>
        <path id="Trazado_52032" data-name="Trazado 52032" d="M-557.475,314.178l22.662,13.084a2.052,2.052,0,0,1,0,3.55,34.627,34.627,0,0,1-17.555,4.752,34.753,34.753,0,0,1-6.491-.612,2.057,2.057,0,0,1-1.679-2.016V315.948A2.044,2.044,0,0,1-557.475,314.178Z" transform="translate(587.187 -265.932)" fill="#ff7761"/>
      </g>
    </g>
  </g>
</svg>
