<svg xmlns="http://www.w3.org/2000/svg" width="17.491" height="17.491" viewBox="0 0 17.491 17.491">
  <path id="login_password" d="M12.364,0A5.116,5.116,0,0,0,7.974,7.76l-7.8,7.8a.6.6,0,1,0,.853.853l1.081-1.081L4.1,17.314a.6.6,0,0,0,.853-.853L2.964,14.475l.655-.655L5,15.2a.6.6,0,1,0,.853-.853L4.472,12.967l.655-.655L7.113,14.3a.6.6,0,0,0,.853-.853L5.98,11.46,8.716,8.723A5.125,5.125,0,1,0,12.364,0Zm0,9.047a3.92,3.92,0,1,1,3.92-3.92A3.925,3.925,0,0,1,12.364,9.047Z" transform="translate(0)" fill="#008cde"/>
</svg>
