<svg id="login_mail" xmlns="http://www.w3.org/2000/svg" width="17.491" height="13.323" viewBox="0 0 17.491 13.323">
  <g id="Grupo_4" data-name="Grupo 4">
    <path id="Trazado_13" data-name="Trazado 13" d="M15.954,61H1.537A1.54,1.54,0,0,0,0,62.537V72.786a1.54,1.54,0,0,0,1.537,1.537H15.954a1.54,1.54,0,0,0,1.537-1.537V62.537A1.54,1.54,0,0,0,15.954,61Zm-.212,1.025L8.778,68.988,1.755,62.025ZM1.025,72.574V62.745l4.936,4.893Zm.725.725,4.939-4.939,1.731,1.716a.512.512,0,0,0,.723,0l1.687-1.687L15.741,73.3Zm14.716-.725-4.912-4.912,4.912-4.912Z" transform="translate(0 -61)" fill="#008cde"/>
  </g>
</svg>
